<svg width="14" height="18" viewBox="0 0 14 18" fill="none" xmlns="http://www.w3.org/2000/svg">
<path d="M13.1728 8.30883C13.1515 8.21867 13.1082 8.13517 13.0469 8.06575C12.9856 7.99632 12.908 7.94312 12.8212 7.91086L8.77049 6.39141L9.80127 1.23539C9.82461 1.11559 9.80836 0.991453 9.75496 0.881705C9.70156 0.771957 9.61391 0.682556 9.50524 0.626991C9.39657 0.571427 9.27278 0.552714 9.15254 0.573677C9.0323 0.59464 8.92215 0.654142 8.83869 0.743203L0.963695 9.1807C0.899735 9.2481 0.853466 9.33029 0.829021 9.41993C0.804576 9.50957 0.802717 9.60387 0.823609 9.6944C0.844502 9.78493 0.887495 9.86888 0.948749 9.93875C1.01 10.0086 1.08761 10.0622 1.17463 10.0948L5.22674 11.6142L4.19877 16.7646C4.17543 16.8844 4.19169 17.0085 4.24509 17.1183C4.29849 17.228 4.38614 17.3174 4.49481 17.373C4.60348 17.4286 4.72727 17.4473 4.84751 17.4263C4.96774 17.4054 5.0779 17.3459 5.16135 17.2568L13.0364 8.8193C13.0992 8.75189 13.1444 8.67008 13.1682 8.58108C13.192 8.49207 13.1936 8.39858 13.1728 8.30883ZM5.6901 15.0469L6.42627 11.3639C6.45262 11.2333 6.43174 11.0976 6.36736 10.9809C6.30298 10.8642 6.19927 10.7742 6.07471 10.7269L2.3594 9.33117L8.30924 2.95664L7.57377 6.63961C7.54743 6.77023 7.5683 6.90596 7.63269 7.02262C7.69707 7.13928 7.80078 7.2293 7.92534 7.27664L11.6378 8.66883L5.6901 15.0469Z" fill="#7D8088"/>
</svg>
